<?xml version="1.0" encoding="UTF-8" standalone="no"?>
<svg
   viewBox="0 0 193.2 206.7"
   width="16"
   height="16"
   version="1.1"
   id="svg1"
   sodipodi:docname="crystal_green.svg"
   inkscape:version="1.4.4 (dcaf3e7d9e, 2026-05-05)"
   xmlns:inkscape="http://www.inkscape.org/namespaces/inkscape"
   xmlns:sodipodi="http://sodipodi.sourceforge.net/DTD/sodipodi-0.dtd"
   xmlns="http://www.w3.org/2000/svg"
   xmlns:svg="http://www.w3.org/2000/svg">
  <defs
     id="defs1" />
  <sodipodi:namedview
     id="namedview1"
     pagecolor="#ffffff"
     bordercolor="#666666"
     borderopacity="1.0"
     inkscape:showpageshadow="2"
     inkscape:pageopacity="0.0"
     inkscape:pagecheckerboard="0"
     inkscape:deskcolor="#d1d1d1"
     inkscape:zoom="51.3125"
     inkscape:cx="8"
     inkscape:cy="8"
     inkscape:window-width="1920"
     inkscape:window-height="1081"
     inkscape:window-x="0"
     inkscape:window-y="0"
     inkscape:window-maximized="1"
     inkscape:current-layer="svg1" />
  <path
     d="m165.4 122-50 49.9c-.2.2-.5.3-.7.2l-68.3-18.3c-.3-.1-.5-.3-.5-.5L27.5 85.1c-.1-.3 0-.5.2-.7l50-49.9c.2-.2.5-.3.7-.2l68.3 18.3c.3.1.5.3.5.5l18.3 68.2c.2.3.1.5-.1.7zm-67-54.3L31.3 85.6c-.1 0-.2.2-.1.3l49.1 49c.1.1.3.1.3-.1l18-67c.1 0-.1-.2-.2-.1z"
     fill="#000000"
     id="path1"
     style="fill:#008000" />
</svg>
