<?xml version="1.0" encoding="UTF-8" standalone="no"?>
<svg
   viewBox="0 0 16 16"
   width="16"
   height="16"
   version="1.1"
   id="svg1"
   sodipodi:docname="embedded_crystal.svg"
   inkscape:version="1.4.4 (dcaf3e7d9e, 2026-05-05)"
   xmlns:inkscape="http://www.inkscape.org/namespaces/inkscape"
   xmlns:sodipodi="http://sodipodi.sourceforge.net/DTD/sodipodi-0.dtd"
   xmlns="http://www.w3.org/2000/svg"
   xmlns:svg="http://www.w3.org/2000/svg">
  <defs
     id="defs1" />
  <sodipodi:namedview
     id="namedview1"
     pagecolor="#ffffff"
     bordercolor="#666666"
     borderopacity="1.0"
     inkscape:showpageshadow="2"
     inkscape:pageopacity="0.0"
     inkscape:pagecheckerboard="0"
     inkscape:deskcolor="#d1d1d1"
     inkscape:zoom="25.65625"
     inkscape:cx="11.556638"
     inkscape:cy="1.3447016"
     inkscape:window-width="1920"
     inkscape:window-height="1081"
     inkscape:window-x="0"
     inkscape:window-y="0"
     inkscape:window-maximized="1"
     inkscape:current-layer="svg1" />
  <path
     d="M 3.102702,13.705396 4.1729719,13.240531 1.351351,8.6026947 4.1729719,3.964858 3.102702,3.4999932 0,8.6026947 Z M 6.4432416,8.5053974 q -0.2594593,0 -0.5189187,-0.064865 Q 5.6648635,8.3648569 5.4702689,8.1918839 5.2756744,8.018911 5.1891879,7.7702625 5.1027015,7.5108031 5.1027015,7.2513437 V 5.932425 q 0,-0.2594594 0.086487,-0.5081079 0.086487,-0.2594594 0.281081,-0.4324323 0.1945946,-0.172973 0.454054,-0.2378378 0.2594594,-0.075676 0.5189186,-0.075676 0.2594594,0 0.5081081,0.075676 0.2594594,0.064865 0.454054,0.2378378 0.1945945,0.1729729 0.281081,0.4324323 0.086487,0.2486485 0.086487,0.5081079 v 1.3189187 q 0,0.2594594 -0.086487,0.5189188 Q 7.5999981,8.018911 7.4054036,8.1918839 7.210809,8.3648569 6.9513496,8.4405326 6.702701,8.5053974 6.4432416,8.5053974 Z M 6.3783764,12.710801 H 5.1999983 L 7.4702684,8.7324244 9.621619,4.7648577 h 1.189189 L 8.5297275,8.7432352 Z m 0.064865,-5.0810791 q 0.064865,0 0.1297297,-0.021622 0.064865,-0.032432 0.097297,-0.086487 0.043243,-0.064865 0.054054,-0.1297297 0.021622,-0.064865 0.021622,-0.1405404 V 5.932425 q 0,-0.075676 -0.021622,-0.1405404 -0.010811,-0.064865 -0.054054,-0.118919 -0.032432,-0.064865 -0.097297,-0.086487 -0.064865,-0.032432 -0.1297297,-0.032432 -0.075676,0 -0.1405405,0.032432 -0.064865,0.021622 -0.1081075,0.086487 -0.032432,0.054054 -0.043243,0.118919 -0.010811,0.064865 -0.010811,0.1405404 v 1.3189187 q 0,0.075676 0.010811,0.1405404 0.010811,0.064865 0.043243,0.1297297 0.043243,0.054054 0.1081075,0.086487 0.064865,0.021622 0.1405405,0.021621 z M 9.556754,12.797288 q -0.259459,0 -0.518918,-0.07568 Q 8.7891869,12.65674 8.5945923,12.48377 8.3999979,12.310798 8.3135114,12.062148 8.2270245,11.80269 8.2270245,11.54323 v -1.318914 q 0,-0.2594595 0.086487,-0.5081081 Q 8.3999985,9.4567485 8.5945924,9.2837756 8.789187,9.1108027 9.037836,9.0459379 q 0.259459,-0.075676 0.518918,-0.075676 0.25946,0 0.518919,0.075676 0.25946,0.064865 0.454054,0.2378377 0.194595,0.1729729 0.281081,0.4324323 0.08649,0.2486486 0.08649,0.5081081 v 1.318919 q 0,0.259459 -0.08649,0.518918 -0.08649,0.248649 -0.281081,0.421622 -0.194594,0.172973 -0.454054,0.237838 -0.259459,0.07568 -0.518919,0.07568 z m 0,-0.875675 q 0.07568,0 0.140541,-0.02162 0.06486,-0.03243 0.0973,-0.08649 0.04324,-0.06487 0.05405,-0.129729 0.01081,-0.06487 0.01081,-0.140541 V 10.22432 q 0,-0.07568 -0.01081,-0.140541 -0.01081,-0.06486 -0.05405,-0.1189185 -0.03243,-0.064865 -0.0973,-0.086487 -0.06487,-0.032432 -0.140541,-0.032432 -0.06486,0 -0.129729,0.032432 -0.06487,0.021622 -0.108108,0.086487 -0.03243,0.054054 -0.05405,0.1189185 -0.01081,0.06487 -0.01081,0.140541 v 1.318919 q 0,0.07568 0.01081,0.14054 0.02162,0.06487 0.05405,0.12973 0.04324,0.05406 0.108108,0.08649 0.06486,0.02162 0.129729,0.02162 z m 5.091895,-3.3189183 -2.82162,4.6378363 1.070269,0.464865 L 16,8.6026947 12.897298,3.4999932 11.827029,3.964858 Z"
     id="text2"
     style="font-weight:bold;font-size:9.45945px;line-height:1.25;font-family:'Adwaita Mono';-inkscape-font-specification:'Adwaita Mono, Bold';fill:#2b8a3e;stroke-width:0.982801"
     aria-label="〈%〉" />
</svg>
