<?xml version="1.0" encoding="UTF-8" standalone="no"?>
<svg
   viewBox="-10 -2 215 215"
   width="200"
   height="200"
   version="1.1"
   id="crystal-logo"
   xmlns="http://www.w3.org/2000/svg">
  <defs>
    <linearGradient id="facet-light" x1="0%" y1="0%" x2="100%" y2="100%">
      <stop offset="0%" stop-color="#a499f7"/>
      <stop offset="100%" stop-color="#7c6ce6"/>
    </linearGradient>
    <linearGradient id="facet-dark" x1="0%" y1="0%" x2="100%" y2="100%">
      <stop offset="0%" stop-color="#6b5bd8"/>
      <stop offset="100%" stop-color="#4a3bbf"/>
    </linearGradient>
  </defs>
  <!-- Full crystal outline -->
  <path
     d="M 199.63707,131.34663 124.779,206.05498 c -0.29943,0.29944 -0.74858,0.44915 -1.04801,0.29944 L 21.47487,178.95636 c -0.449148,-0.14971 -0.748581,-0.44915 -0.748581,-0.74858 L -6.8214791,76.10138 c -0.1497162,-0.449148 0,-0.748581 0.2994322,-1.048013 L 68.336019,0.34501685 C 68.635452,0.04558458 69.0846,-0.10413155 69.384032,0.04558458 L 171.64015,27.443637 c 0.44915,0.149716 0.74858,0.449148 0.74858,0.748581 l 27.39805,102.106402 c 0.29944,0.44915 0.14972,0.74858 -0.14971,1.04801 z"
     fill="url(#facet-dark)"
     id="crystal-outline"
     style="stroke-width:1.49716" />
  <!-- Inner facet (lighter) -->
  <path
     d="M 99.327259,50.050773 -1.1322661,76.849961 c -0.1497161,0 -0.2994322,0.299432 -0.1497161,0.449148 L 72.228639,150.66001 c 0.149716,0.14972 0.449148,0.14972 0.449148,-0.14971 L 99.626691,50.200489 c 0.149716,0 -0.149716,-0.299432 -0.299432,-0.149716 z"
     fill="url(#facet-light)"
     id="crystal-inner-facet"
     style="stroke-width:1.49716" />
</svg>
